<svg width="41" height="40" viewBox="0 0 41 40" fill="none" xmlns="http://www.w3.org/2000/svg">
<g id="guidance:sanitize-hands">
<path id="Vector" d="M8.49789 25.3191H7.78867M8.49789 25.3191C8.49789 26.6357 7.97485 27.8985 7.04381 28.8295C6.11278 29.7606 4.85003 30.2836 3.53336 30.2836M8.49789 25.3191H24.1007V26.0283C24.1007 27.1569 23.6524 28.2392 22.8544 29.0373C22.0563 29.8353 20.974 30.2836 19.8454 30.2836H14.8809H24.81L30.2341 28.024C31.1477 27.6431 32.1278 27.4469 33.1178 27.4467H33.3206C34.2611 27.4467 35.163 27.8203 35.8281 28.4854C36.4931 29.1504 36.8667 30.0523 36.8667 30.9928L23.3915 36.6666H3.53336M17.7178 15.39H20.5546M20.5546 15.39H23.3915M20.5546 15.39V12.5531M20.5546 15.39V18.2269M14.7036 15.4056C14.7036 18.8212 17.3234 21.0637 20.5546 21.0637C23.7858 21.0637 26.4057 18.8226 26.4057 15.4056C26.4057 13.9829 25.8709 12.3659 24.9192 11.3602L22.4851 8.78715C21.2497 7.48077 20.5546 5.18148 20.5546 3.33325C20.5546 5.18148 19.8596 7.48077 18.6241 8.78715L16.1901 11.3616C15.2383 12.3687 14.7036 13.9843 14.7036 15.407V15.4056Z" stroke="#EE3123" stroke-width="2"/>
</g>
</svg>
