<svg width="41" height="40" viewBox="0 0 41 40" fill="none" xmlns="http://www.w3.org/2000/svg">
<g id="la:people-carry">
<path id="Vector" d="M10.3882 6C8.42856 6 6.83381 7.65812 6.83381 9.69565C6.83381 11.7332 8.42856 13.3913 10.3882 13.3913C12.3479 13.3913 13.9426 11.7332 13.9426 9.69565C13.9426 7.65812 12.3479 6 10.3882 6ZM29.3451 6C27.3855 6 25.7907 7.65812 25.7907 9.69565C25.7907 11.7332 27.3855 13.3913 29.3451 13.3913C31.3048 13.3913 32.8995 11.7332 32.8995 9.69565C32.8995 7.65812 31.3048 6 29.3451 6ZM10.3882 8.46377C10.7025 8.46377 11.0038 8.59356 11.226 8.82458C11.4482 9.0556 11.573 9.36894 11.573 9.69565C11.573 10.0224 11.4482 10.3357 11.226 10.5667C11.0038 10.7977 10.7025 10.9275 10.3882 10.9275C10.074 10.9275 9.77264 10.7977 9.55045 10.5667C9.32825 10.3357 9.20342 10.0224 9.20342 9.69565C9.20342 9.36894 9.32825 9.0556 9.55045 8.82458C9.77264 8.59356 10.074 8.46377 10.3882 8.46377ZM29.3451 8.46377C29.6594 8.46377 29.9607 8.59356 30.1829 8.82458C30.4051 9.0556 30.5299 9.36894 30.5299 9.69565C30.5299 10.0224 30.4051 10.3357 30.1829 10.5667C29.9607 10.7977 29.6594 10.9275 29.3451 10.9275C29.0309 10.9275 28.7295 10.7977 28.5073 10.5667C28.2851 10.3357 28.1603 10.0224 28.1603 9.69565C28.1603 9.36894 28.2851 9.0556 28.5073 8.82458C28.7295 8.59356 29.0309 8.46377 29.3451 8.46377ZM9.02333 14.6232C8.77432 14.6227 8.5315 14.7038 8.32941 14.8551C8.12733 15.0064 7.97629 15.2201 7.89777 15.4658L5.79948 22.012C5.64149 22.5077 5.63859 23.0427 5.79121 23.5403C5.94383 24.0378 6.24412 24.4722 6.64898 24.7813L10.3882 27.558V34.3333H12.7578V27.558C12.7578 26.7856 12.4024 26.0477 11.7887 25.5709L8.04587 22.7943L9.7354 17.5292C10.1382 18.6317 10.8088 20.4143 10.8088 20.4143C11.0919 21.1753 11.6082 21.8183 12.278 22.2436L15.1275 24.4783H24.6059L27.4565 22.2436C28.1249 21.8196 28.6406 21.179 28.9245 20.4204C28.9245 20.4204 29.5856 18.6613 30.0027 17.523L31.7088 22.777L27.9269 25.5857C27.6325 25.8156 27.3933 26.1134 27.2283 26.4556C27.0632 26.7978 26.9767 27.1751 26.9755 27.558V34.3333H29.3451L29.3238 27.5752L33.1104 24.7641C33.928 24.1259 34.2573 23.0197 33.9339 22.0145L31.8356 15.4658C31.7572 15.22 31.6062 15.0062 31.4041 14.8549C31.202 14.7036 30.9591 14.6225 30.71 14.6232H29.9423C29.4067 14.6232 28.4411 14.8178 27.9802 16.1138C27.6793 16.9724 26.7184 19.5199 26.716 19.5261C26.6182 19.7891 26.4373 20.0098 26.203 20.1519C26.161 20.1765 26.1206 20.2041 26.0822 20.2344L24.6059 21.3887V14.6232H15.1275V21.3887L13.6512 20.2344C13.6121 20.205 13.5718 20.1775 13.5303 20.1519C13.2952 20.0091 13.1141 19.787 13.0173 19.5224C13.0173 19.5224 12.0576 16.9699 11.7531 16.1101C11.2946 14.8154 10.3266 14.6232 9.79109 14.6232H9.02333ZM17.4971 17.087H22.2363V22.0145H17.4971V17.087ZM5.95469 25.7804L5.71417 28.3033C5.6881 28.5755 5.61939 28.8379 5.51038 29.0855L3.20001 34.3333H5.80659L7.66318 30.1104C7.88118 29.6177 8.01743 29.0917 8.07075 28.5459L8.17738 27.4299L5.95824 25.7853L5.95469 25.7804ZM33.7787 25.7804L31.5548 27.4311L31.6614 28.5496C31.7147 29.0917 31.851 29.6152 32.069 30.1104L33.9268 34.3333H36.5333L34.223 29.0855C34.1146 28.838 34.0457 28.5738 34.0192 28.3033L33.7787 25.7804Z" fill="#EE3123"/>
</g>
</svg>
