<svg width="42" height="48" viewBox="0 0 42 48" fill="none" xmlns="http://www.w3.org/2000/svg">
<path id="Vector" d="M17.85 18.2414C16.695 18.2414 15.75 19.5427 15.75 21.1333V28.363C15.75 29.1618 15.2801 29.8089 14.7 29.8089C14.1199 29.8089 13.65 29.1618 13.65 28.363V21.445C13.65 19.8735 13.9597 18.3299 14.5484 16.9816L19.6507 5.27039C20.2473 3.90037 19.9257 2.12457 18.9308 1.30219C17.9826 0.518673 16.7836 0.913596 16.1549 2.13451C16.1418 2.1553 16.1142 2.15349 16.1031 2.17789L8.40787 18.0742C7.71487 19.5057 7.35 21.1694 7.35 22.8847V30.1351L1.43588 32.8499C1.01769 33.0415 0.653934 33.4096 0.396201 33.9019C0.138468 34.3942 -0.000153094 34.9858 1.26881e-07 35.5927V44.2683C1.26881e-07 45.2461 0.559125 47.1602 2.1 47.1602C2.27653 47.1602 2.45503 47.1295 2.62894 47.0671L14.3883 42.854C17.6636 41.5644 19.95 37.3902 19.95 32.7008V21.1333C19.95 19.5427 19.005 18.2414 17.85 18.2414ZM40.5641 32.8571L34.65 30.1424V22.8919C34.65 21.1766 34.2851 19.5129 33.5921 18.0814L25.8969 2.18602C25.8851 2.16162 25.8582 2.16433 25.8451 2.14264C25.2164 0.921729 24.0174 0.526807 23.0692 1.31033C22.0743 2.1318 21.7527 3.9085 22.3492 5.27853L27.4516 16.9897C28.0402 18.3381 28.35 19.8816 28.35 21.4532V28.3711C28.35 29.17 27.8801 29.817 27.3 29.817C26.7199 29.817 26.25 29.17 26.25 28.3711V21.1414C26.25 19.5509 25.305 18.2495 24.15 18.2495C22.995 18.2495 22.05 19.5509 22.05 21.1414V32.7089C22.05 37.3983 24.3364 41.5725 27.6117 42.8612L39.3711 47.0743C39.5456 47.1367 39.7241 47.1674 39.9 47.1674C41.4409 47.1674 42 45.2534 42 44.2755V35.5999C42 34.3555 41.4218 33.2512 40.5641 32.8571Z" fill="#FCD6D3"/>
</svg>
